<?xml version="1.0" encoding="UTF-8"?>
<svg xmlns="http://www.w3.org/2000/svg" xmlns:xlink="http://www.w3.org/1999/xlink" width="1125pt" height="1124.99995pt" viewBox="0 0 1125 1124.99995" version="1.2">
<defs>
<clipPath id="clip1">
  <path d="M 451 344 L 620 344 L 620 661 L 451 661 Z M 451 344 "/>
</clipPath>
<clipPath id="clip2">
  <path d="M 204.453125 469.425781 L 471.695312 339.34375 L 624.402344 653.0625 L 357.160156 783.144531 Z M 204.453125 469.425781 "/>
</clipPath>
<clipPath id="clip3">
  <path d="M 471.734375 339.324219 L 204.492188 469.410156 L 357.195312 783.128906 L 624.4375 653.042969 Z M 471.734375 339.324219 "/>
</clipPath>
<clipPath id="clip4">
  <path d="M 245 372 L 499 372 L 499 559 L 245 559 Z M 245 372 "/>
</clipPath>
<clipPath id="clip5">
  <path d="M 204.453125 469.425781 L 471.695312 339.34375 L 624.402344 653.0625 L 357.160156 783.144531 Z M 204.453125 469.425781 "/>
</clipPath>
<clipPath id="clip6">
  <path d="M 471.734375 339.324219 L 204.492188 469.410156 L 357.195312 783.128906 L 624.4375 653.042969 Z M 471.734375 339.324219 "/>
</clipPath>
<clipPath id="clip7">
  <path d="M 502 344 L 676 344 L 676 658 L 502 658 Z M 502 344 "/>
</clipPath>
<clipPath id="clip8">
  <path d="M 655.960938 339.324219 L 920.492188 474.839844 L 761.410156 785.375 L 496.882812 649.863281 Z M 655.960938 339.324219 "/>
</clipPath>
<clipPath id="clip9">
  <path d="M 655.960938 339.324219 L 920.492188 474.839844 L 761.410156 785.375 L 496.882812 649.863281 Z M 655.960938 339.324219 "/>
</clipPath>
<clipPath id="clip10">
  <path d="M 625 373 L 878 373 L 878 564 L 625 564 Z M 625 373 "/>
</clipPath>
<clipPath id="clip11">
  <path d="M 655.960938 339.324219 L 920.492188 474.839844 L 761.410156 785.375 L 496.882812 649.863281 Z M 655.960938 339.324219 "/>
</clipPath>
<clipPath id="clip12">
  <path d="M 655.960938 339.324219 L 920.492188 474.839844 L 761.410156 785.375 L 496.882812 649.863281 Z M 655.960938 339.324219 "/>
</clipPath>
</defs>
<g id="surface1">
<rect x="0" y="0" width="1125" height="1124.99995" style="fill:rgb(0.389099%,0.389099%,0.389099%);fill-opacity:1;stroke:none;"/>
<g clip-path="url(#clip1)" clip-rule="nonzero">
<g clip-path="url(#clip2)" clip-rule="nonzero">
<g clip-path="url(#clip3)" clip-rule="nonzero">
<path style=" stroke:none;fill-rule:nonzero;fill:rgb(100%,100%,100%);fill-opacity:1;" d="M 459.195312 345.527344 C 465.625 342.398438 473.367188 345.070312 476.496094 351.492188 L 617.800781 641.789062 C 620.925781 648.214844 618.253906 655.957031 611.824219 659.085938 C 605.398438 662.214844 597.648438 659.546875 594.519531 653.121094 L 453.214844 362.824219 C 450.089844 356.402344 452.769531 348.65625 459.195312 345.527344 Z M 459.195312 345.527344 "/>
</g>
</g>
</g>
<g clip-path="url(#clip4)" clip-rule="nonzero">
<g clip-path="url(#clip5)" clip-rule="nonzero">
<g clip-path="url(#clip6)" clip-rule="nonzero">
<path style=" stroke:none;fill-rule:nonzero;fill:rgb(100%,100%,100%);fill-opacity:1;" d="M 248.6875 539.851562 L 413.558594 376.023438 C 416.09375 373.507812 419.703125 372.355469 423.238281 372.949219 C 426.765625 373.546875 429.792969 375.8125 431.355469 379.027344 L 497.132812 514.15625 C 498.699219 517.375 498.613281 521.148438 496.90625 524.292969 C 495.789062 526.355469 494.066406 527.980469 492.007812 528.980469 C 490.921875 529.511719 489.746094 529.863281 488.515625 530.019531 L 257.867188 558.71875 C 253.160156 559.304688 248.601562 556.835938 246.523438 552.570312 C 244.453125 548.3125 245.324219 543.195312 248.6875 539.851562 Z M 248.6875 539.851562 "/>
</g>
</g>
</g>
<g clip-path="url(#clip7)" clip-rule="nonzero">
<g clip-path="url(#clip8)" clip-rule="nonzero">
<g clip-path="url(#clip9)" clip-rule="nonzero">
<path style=" stroke:none;fill-rule:nonzero;fill:rgb(100%,100%,100%);fill-opacity:1;" d="M 668.371094 345.78125 C 662.003906 342.519531 654.207031 345.035156 650.949219 351.394531 L 503.75 638.746094 C 500.492188 645.101562 503.003906 652.898438 509.371094 656.160156 C 515.730469 659.417969 523.535156 656.90625 526.792969 650.550781 L 673.996094 363.199219 C 677.253906 356.839844 674.730469 349.039062 668.371094 345.78125 Z M 668.371094 345.78125 "/>
</g>
</g>
</g>
<g clip-path="url(#clip10)" clip-rule="nonzero">
<g clip-path="url(#clip11)" clip-rule="nonzero">
<g clip-path="url(#clip12)" clip-rule="nonzero">
<path style=" stroke:none;fill-rule:nonzero;fill:rgb(100%,100%,100%);fill-opacity:1;" d="M 874.867188 544.363281 L 713.375 377.203125 C 710.890625 374.636719 707.304688 373.410156 703.757812 373.933594 C 700.21875 374.457031 697.148438 376.664062 695.519531 379.84375 L 627 513.601562 C 625.367188 516.789062 625.371094 520.5625 627.015625 523.742188 C 628.089844 525.828125 629.78125 527.484375 631.820312 528.527344 C 632.890625 529.078125 634.0625 529.457031 635.285156 529.636719 L 865.304688 563.042969 C 869.996094 563.722656 874.605469 561.34375 876.769531 557.125 C 878.925781 552.910156 878.160156 547.777344 874.867188 544.363281 Z M 874.867188 544.363281 "/>
</g>
</g>
</g>
</g>
</svg>
